<?xml version="1.0" encoding="UTF-8" standalone="no"?>
<!DOCTYPE svg PUBLIC "-//W3C//DTD SVG 1.1//EN"
 "http://www.w3.org/Graphics/SVG/1.1/DTD/svg11.dtd">
<!-- Generated by graphviz version 2.43.0 (0)
 -->
<!-- Title: %3 Pages: 1 -->
<svg width="292pt" height="368pt"
 viewBox="0.00 0.00 292.00 368.00" xmlns="http://www.w3.org/2000/svg" xmlns:xlink="http://www.w3.org/1999/xlink">
<g id="graph0" class="graph" transform="scale(1 1) rotate(0) translate(4 364)">
<title>%3</title>
<polygon fill="#242424" stroke="transparent" points="-4,4 -4,-364 288,-364 288,4 -4,4"/>
<!-- cli -->
<g id="node1" class="node">
<title>cli</title>
<polygon fill="#343434" stroke="#343434" points="89,-36 35,-36 35,0 89,0 89,-36"/>
<text text-anchor="middle" x="62" y="-14.3" font-family="Courier,monospace" font-size="14.00" fill="#b6ecf3">cli</text>
</g>
<!-- f8s.command -->
<g id="node2" class="node">
<title>f8s.command</title>
<polygon fill="#343434" stroke="#343434" points="275.5,-333 168.5,-333 168.5,-297 275.5,-297 275.5,-333"/>
<text text-anchor="middle" x="222" y="-311.3" font-family="Courier,monospace" font-size="14.00" fill="#b6ecf3">f8s.command</text>
</g>
<!-- f8s.extension -->
<g id="node3" class="node">
<title>f8s.extension</title>
<polygon fill="#343434" stroke="#343434" points="284,-252 160,-252 160,-216 284,-216 284,-252"/>
<text text-anchor="middle" x="222" y="-230.3" font-family="Courier,monospace" font-size="14.00" fill="#b6ecf3">f8s.extension</text>
</g>
<!-- f8s.tools -->
<g id="node4" class="node">
<title>f8s.tools</title>
<polygon fill="#343434" stroke="#343434" points="267.5,-171 176.5,-171 176.5,-135 267.5,-135 267.5,-171"/>
<text text-anchor="middle" x="222" y="-149.3" font-family="Courier,monospace" font-size="14.00" fill="#b6ecf3">f8s.tools</text>
</g>
<!-- click -->
<g id="node5" class="node">
<title>click</title>
<polygon fill="#343434" stroke="#343434" points="91,-360 33,-360 33,-324 91,-324 91,-360"/>
<text text-anchor="middle" x="62" y="-338.3" font-family="Courier,monospace" font-size="14.00" fill="#de958e">click</text>
</g>
<!-- click&#45;&gt;f8s.command -->
<g id="edge1" class="edge">
<title>click&#45;&gt;f8s.command</title>
<path fill="none" stroke="#de958e" d="M91.25,-337.17C109.88,-333.99 135.05,-329.69 158.26,-325.72"/>
<polygon fill="#de958e" stroke="#de958e" points="159.14,-329.12 168.41,-323.99 157.96,-322.22 159.14,-329.12"/>
</g>
<!-- f8s -->
<g id="node6" class="node">
<title>f8s</title>
<polygon fill="#343434" stroke="#343434" points="89,-306 35,-306 35,-270 89,-270 89,-306"/>
<text text-anchor="middle" x="62" y="-284.3" font-family="Courier,monospace" font-size="14.00" fill="#a0d17b">f8s</text>
</g>
<!-- f8s&#45;&gt;f8s.command -->
<g id="edge2" class="edge">
<title>f8s&#45;&gt;f8s.command</title>
<path fill="none" stroke="#a0d17b" d="M89.09,-292.46C107.88,-295.67 134.06,-300.14 158.15,-304.26"/>
<polygon fill="#a0d17b" stroke="#a0d17b" points="157.87,-307.76 168.32,-306 159.05,-300.86 157.87,-307.76"/>
</g>
<!-- f8s&#45;&gt;f8s.extension -->
<g id="edge3" class="edge">
<title>f8s&#45;&gt;f8s.extension</title>
<path fill="none" stroke="#a0d17b" d="M89.09,-279.08C108.05,-272.6 134.53,-263.55 158.79,-255.26"/>
<polygon fill="#a0d17b" stroke="#a0d17b" points="159.99,-258.55 168.32,-252.01 157.72,-251.93 159.99,-258.55"/>
</g>
<!-- f8s&#45;&gt;f8s.tools -->
<g id="edge4" class="edge">
<title>f8s&#45;&gt;f8s.tools</title>
<path fill="none" stroke="#a0d17b" d="M89.16,-280.14C100.7,-275.79 113.9,-269.5 124,-261 146.07,-242.42 141.04,-228.74 160,-207 168.95,-196.74 179.79,-186.56 189.84,-177.85"/>
<polygon fill="#a0d17b" stroke="#a0d17b" points="192.31,-180.34 197.68,-171.21 187.79,-175 192.31,-180.34"/>
</g>
<!-- flasgger -->
<g id="node7" class="node">
<title>flasgger</title>
<polygon fill="#343434" stroke="#343434" points="103.5,-144 20.5,-144 20.5,-108 103.5,-108 103.5,-144"/>
<text text-anchor="middle" x="62" y="-122.3" font-family="Courier,monospace" font-size="14.00" fill="#de958e">flasgger</text>
</g>
<!-- flasgger&#45;&gt;f8s.tools -->
<g id="edge5" class="edge">
<title>flasgger&#45;&gt;f8s.tools</title>
<path fill="none" stroke="#de958e" d="M103.69,-132.95C122.78,-136.22 145.82,-140.15 166.4,-143.67"/>
<polygon fill="#de958e" stroke="#de958e" points="165.83,-147.12 176.28,-145.36 167.01,-140.22 165.83,-147.12"/>
</g>
<!-- flask -->
<g id="node8" class="node">
<title>flask</title>
<polygon fill="#343434" stroke="#343434" points="91,-198 33,-198 33,-162 91,-162 91,-198"/>
<text text-anchor="middle" x="62" y="-176.3" font-family="Courier,monospace" font-size="14.00" fill="#de958e">flask</text>
</g>
<!-- flask&#45;&gt;f8s.extension -->
<g id="edge6" class="edge">
<title>flask&#45;&gt;f8s.extension</title>
<path fill="none" stroke="#de958e" d="M91.25,-189.65C109.97,-196.05 135.29,-204.71 158.59,-212.67"/>
<polygon fill="#de958e" stroke="#de958e" points="157.49,-215.99 168.09,-215.92 159.76,-209.37 157.49,-215.99"/>
</g>
<!-- flask&#45;&gt;f8s.tools -->
<g id="edge7" class="edge">
<title>flask&#45;&gt;f8s.tools</title>
<path fill="none" stroke="#de958e" d="M91.25,-175.17C112,-171.63 140.85,-166.7 166.08,-162.38"/>
<polygon fill="#de958e" stroke="#de958e" points="167.01,-165.78 176.27,-160.64 165.83,-158.88 167.01,-165.78"/>
</g>
<!-- flask_healthz -->
<g id="node9" class="node">
<title>flask_healthz</title>
<polygon fill="#343434" stroke="#343434" points="124,-90 0,-90 0,-54 124,-54 124,-90"/>
<text text-anchor="middle" x="62" y="-68.3" font-family="Courier,monospace" font-size="14.00" fill="#de958e">flask_healthz</text>
</g>
<!-- flask_healthz&#45;&gt;f8s.tools -->
<g id="edge8" class="edge">
<title>flask_healthz&#45;&gt;f8s.tools</title>
<path fill="none" stroke="#de958e" d="M105.24,-90.09C111.57,-92.98 117.99,-96 124,-99 143.1,-108.52 163.82,-119.9 181.18,-129.76"/>
<polygon fill="#de958e" stroke="#de958e" points="179.51,-132.84 189.93,-134.75 182.99,-126.76 179.51,-132.84"/>
</g>
<!-- yaml -->
<g id="node10" class="node">
<title>yaml</title>
<polygon fill="#343434" stroke="#343434" points="89,-252 35,-252 35,-216 89,-216 89,-252"/>
<text text-anchor="middle" x="62" y="-230.3" font-family="Courier,monospace" font-size="14.00" fill="#de958e">yaml</text>
</g>
<!-- yaml&#45;&gt;f8s.extension -->
<g id="edge9" class="edge">
<title>yaml&#45;&gt;f8s.extension</title>
<path fill="none" stroke="#de958e" d="M89.09,-234C105.66,-234 127.98,-234 149.54,-234"/>
<polygon fill="#de958e" stroke="#de958e" points="149.7,-237.5 159.7,-234 149.7,-230.5 149.7,-237.5"/>
</g>
</g>
</svg>
